<svg id="Layer_1" data-name="Layer 1" xmlns="http://www.w3.org/2000/svg" xmlns:xlink="http://www.w3.org/1999/xlink" viewBox="0 0 945.7 1388.13"><defs><style>.cls-1{fill:url(#linear-gradient);}.cls-2{fill:#aed1ff;}.cls-3{fill:url(#linear-gradient-2);}.cls-4{fill:none;}</style><linearGradient id="linear-gradient" x1="532.57" y1="1455.4" x2="1424.77" y2="1455.4" gradientUnits="userSpaceOnUse"><stop offset="0" stop-color="#0071bc"/><stop offset="1" stop-color="#00356d"/></linearGradient><linearGradient id="linear-gradient-2" x1="551.46" y1="675.04" x2="1159.48" y2="675.04" xlink:href="#linear-gradient"/></defs><title>Sono</title><path class="cls-1" d="M1396.93,1401.28c35.44,52.38,34.88,117.89,10.54,173.7-1.15,2.62-2.33,5.22-3.57,7.78-25.3,52.3-71.65,94.8-128.49,107.76-104.2,23.76-251.27-75.27-387.34-137.89S627,1463.82,566.81,1633.26c-19.79-67.78-40.37-159.81-32.53-240s44.11-148.56,138-169c100-21.78,196.45,7.39,293.55,37.74s194.78,61.87,297.18,44.8l.31-.77q13,5.19,25.71,11C1332.15,1337.05,1371.34,1363.46,1396.93,1401.28Z" transform="translate(-526.89 -306)"/><path class="cls-2" d="M1390.7,671.6c2.47,83.23,8.12,164,81.62,215.2-102,33.45-190.61,14.47-269-31S1057,738.55,996.21,666.19C955,617.17,905.78,541.26,847.71,488c-32.63-29.91-68.06-52.68-106.39-59.48-29.72-5.27-61.16-.95-94.44,17.06Q655.51,435,664.77,425C719,366.42,789.08,324.61,873.17,311.89c74.82-11.31,161.1-6.37,242.41,15.17s157.62,59.63,212.5,114.66C1388.91,502.71,1388.21,588.38,1390.7,671.6Z" transform="translate(-526.89 -306)"/><path class="cls-2" d="M1159.48,923.62c49.81,8,97.8,17,140.27,35.29,44,19,82.17,47.84,110.3,95.76,48.3,82.26,66.27,176.41,61.91,270.53-4.18,89.56-28.58,179.12-66.35,258.39l-1.71-.83c1.24-2.56,2.42-5.16,3.57-7.78,24.34-55.81,24.9-121.32-10.54-173.7-25.59-37.82-64.78-64.23-107.88-84.23q-12.66-5.88-25.71-11c-35.59-14.23-72.5-24.93-105.66-34.72-93.4-27.57-212.53-46.72-322-82.34s-209.41-87.69-264.37-181.13c-31.14-53-43.47-116.9-44.33-181.81s9.77-130.76,24.52-187.55c0,134.53,105.35,198.46,233.35,232.32s278.66,37.67,369.24,52Z" transform="translate(-526.89 -306)"/><path class="cls-3" d="M775.93,688c65.71,99.16,188.52,195.82,383.55,235.64l-5.43-.86c-90.58-14.32-241.24-18.12-369.24-52S551.46,773,551.46,638.45c18.33-70.58,50.56-137.72,95.42-192.84,33.28-18,64.72-22.33,94.44-17.06l-.11.61C700.75,475.21,706.33,583,775.93,688Z" transform="translate(-526.89 -306)"/><path class="cls-4" d="M1399.77,1595.59q3-6,5.85-12c37.77-79.26,62.17-168.82,66.34-258.38,4.37-94.12-13.6-188.27-61.91-270.54-28.13-47.91-66.26-76.79-110.29-95.76-42.47-18.28-90.47-27.33-140.28-35.29l-5.43-.87c-90.58-14.32-241.24-18.12-369.24-52S551.46,773,551.46,638.45" transform="translate(-526.89 -306)"/><path class="cls-4" d="M1263,1306.77c-102.4,17.06-200.09-14.45-297.19-44.8s-193.59-59.52-293.54-37.74c-93.91,20.44-130.18,88.81-138,169s12.74,172.24,32.52,240" transform="translate(-526.89 -306)"/><path class="cls-4" d="M566.81,1633.26C627,1463.82,752,1490,888.07,1552.63s283.14,161.65,387.33,137.89c56.84-13,103.19-55.46,128.49-107.75q1.86-3.85,3.57-7.79c24.35-55.81,24.91-121.32-10.53-173.69-25.59-37.82-64.78-64.24-107.88-84.23-8.44-3.92-17-7.59-25.71-11.05-35.59-14.23-72.5-24.93-105.66-34.73-93.4-27.57-212.52-46.71-322-82.33s-209.41-87.69-264.37-181.13c-31.14-53-43.48-116.91-44.33-181.81s9.77-130.76,24.51-187.55c18.33-70.59,50.56-137.72,95.42-192.84Q655.5,435,664.77,425C719,366.42,789.08,324.61,873.17,311.89c74.81-11.32,161.09-6.38,242.41,15.17s157.62,59.63,212.5,114.66c60.83,61,60.13,146.65,62.62,229.88s8.12,164,81.62,215.2c-102,33.44-190.6,14.47-268.95-31S1057,738.55,996.21,666.19C955,617.17,905.78,541.26,847.71,488c-32.63-29.91-68.06-52.68-106.39-59.48-29.72-5.27-61.17-.95-94.44,17.06l-.54.29" transform="translate(-526.89 -306)"/><path class="cls-4" d="M741.21,429.16C700.75,475.21,706.33,583,775.93,688c65.72,99.16,188.52,195.82,383.55,235.64q17.2,3.52,35.19,6.43" transform="translate(-526.89 -306)"/></svg>